<?xml version="1.0" encoding="utf-8"?>
<!-- Generator: Adobe Illustrator 28.1.0, SVG Export Plug-In . SVG Version: 6.00 Build 0)  -->
<svg version="1.1" id="Warstwa_1" xmlns="http://www.w3.org/2000/svg" xmlns:xlink="http://www.w3.org/1999/xlink" x="0px" y="0px"
	 viewBox="0 0 58 58" style="enable-background:new 0 0 58 58;" xml:space="preserve">
<style type="text/css">
	.st0{fill:#FFFFFF;}
	.st1{fill-rule:evenodd;clip-rule:evenodd;fill:#FFFFFF;}
</style>
<path class="st0" d="M31.7,50.8c-5.5,0-10.6-2.1-14.5-6c-8-8-8-21,0-29c3.9-3.9,9-6,14.5-6c5.5,0,10.6,2.1,14.5,6l0,0c8,8,8,21,0,29
	C42.4,48.7,37.2,50.8,31.7,50.8z M31.7,11.8c-4.9,0-9.6,1.9-13.1,5.4c-7.2,7.2-7.2,19,0,26.2c3.5,3.5,8.1,5.4,13.1,5.4
	s9.6-1.9,13.1-5.4c7.2-7.2,7.2-18.9,0-26.2l0,0C41.3,13.8,36.7,11.8,31.7,11.8z"/>
<path class="st1" d="M44.1,26.5c0.4-0.4,0.4-1,0-1.4c-0.4-0.4-1-0.4-1.4,0l-11,11l-11-11c-0.4-0.4-1-0.4-1.4,0c-0.4,0.4-0.4,1,0,1.4
	L31,38.2c0,0,0.1,0.1,0.2,0.1c0.3,0.2,0.7,0.2,1.1,0c0.1,0,0.1-0.1,0.2-0.2L44.1,26.5z"/>
</svg>
