<svg width="18" height="21" viewBox="0 0 18 21" fill="none" xmlns="http://www.w3.org/2000/svg">
<path d="M9 10.2436C11.6949 10.2436 13.8857 8.05897 13.8857 5.37179C13.8857 2.68462 11.6949 0.5 9 0.5C6.30514 0.5 4.11429 2.68462 4.11429 5.37179C4.11429 8.05897 6.30514 10.2436 9 10.2436ZM9 2.03846C10.8411 2.03846 12.3429 3.5359 12.3429 5.37179C12.3429 7.20769 10.8411 8.70513 9 8.70513C7.15886 8.70513 5.65714 7.20769 5.65714 5.37179C5.65714 3.5359 7.15886 2.03846 9 2.03846Z" fill="black"/>
<path d="M12.0857 11.7821H5.91429C2.65371 11.7821 0 14.4282 0 17.6795C0 19.2385 1.26514 20.5 2.82857 20.5H15.1714C16.7349 20.5 18 19.2385 18 17.6795C18 14.4282 15.3463 11.7821 12.0857 11.7821ZM15.1714 18.9615H2.82857C2.11886 18.9615 1.54286 18.3872 1.54286 17.6795C1.54286 15.2795 3.50743 13.3205 5.91429 13.3205H12.0857C14.4926 13.3205 16.4571 15.2795 16.4571 17.6795C16.4571 18.3872 15.8811 18.9615 15.1714 18.9615Z" fill="black"/>
</svg>
