<svg width="21" height="21" viewBox="0 0 21 21" fill="none" xmlns="http://www.w3.org/2000/svg">
<path d="M16.4284 21H4.56343C2.05355 21 0 18.975 0 16.5V16.35L0.456343 4.35C0.532401 1.875 2.58595 0 5.01978 0H15.972C18.4058 0 20.4594 1.875 20.5355 4.35L20.9918 16.35C21.0679 17.55 20.6115 18.675 19.7749 19.575C18.9383 20.475 17.7974 21 16.5805 21C16.5805 21 16.5044 21 16.4284 21ZM5.01978 1.5C3.34652 1.5 2.05355 2.775 1.97749 4.35L1.52114 16.5C1.52114 18.15 2.89017 19.5 4.56343 19.5H16.5805C17.4171 19.5 18.1777 19.125 18.7101 18.525C19.2425 17.925 19.5467 17.175 19.5467 16.35L19.0904 4.35C19.0143 2.7 17.7213 1.5 16.0481 1.5H5.01978Z" fill="black"/>
<path d="M10.4959 9C7.52967 9 5.17189 6.675 5.17189 3.75C5.17189 3.3 5.47612 3 5.93246 3C6.38881 3 6.69304 3.3 6.69304 3.75C6.69304 5.85 8.3663 7.5 10.4959 7.5C12.6255 7.5 14.2988 5.85 14.2988 3.75C14.2988 3.3 14.603 3 15.0593 3C15.5157 3 15.8199 3.3 15.8199 3.75C15.8199 6.675 13.4621 9 10.4959 9Z" fill="black"/>
</svg>
