<svg width="20" height="20" viewBox="0 0 20 20" fill="none" xmlns="http://www.w3.org/2000/svg">
<path d="M0.976726 20C0.783557 20 0.594717 19.9428 0.434092 19.8355C0.273467 19.7282 0.148273 19.5756 0.0743456 19.3972C0.00041832 19.2187 -0.0189208 19.0223 0.0187744 18.8329C0.0564696 18.6434 0.149506 18.4694 0.286114 18.3328L18.3326 0.286064C18.5158 0.1029 18.7642 0 19.0232 0C19.2823 0 19.5307 0.1029 19.7139 0.286064C19.897 0.469228 19.9999 0.717652 19.9999 0.976685C19.9999 1.23572 19.897 1.48414 19.7139 1.66731L1.66734 19.7141C1.57673 19.8049 1.46907 19.8769 1.35056 19.9259C1.23204 19.975 1.105 20.0002 0.976726 20Z" fill="black"/>
<path d="M19.0233 20C18.895 20.0002 18.768 19.975 18.6494 19.9259C18.5309 19.8769 18.4233 19.8049 18.3327 19.7141L0.28614 1.66731C0.102978 1.48414 7.91091e-05 1.23572 7.91091e-05 0.976685C7.91091e-05 0.717652 0.102978 0.469228 0.28614 0.286064C0.469301 0.1029 0.717722 0 0.976751 0C1.23578 0 1.4842 0.1029 1.66736 0.286064L19.7139 18.3328C19.8505 18.4694 19.9435 18.6434 19.9812 18.8329C20.0189 19.0223 19.9996 19.2187 19.9257 19.3972C19.8517 19.5756 19.7265 19.7282 19.5659 19.8355C19.4053 19.9428 19.2164 20 19.0233 20Z" fill="black"/>
</svg>
