<svg width="53" height="46" viewBox="0 0 53 46" fill="none" xmlns="http://www.w3.org/2000/svg">
<path d="M48.7918 4.65815C46.2699 2.25109 42.9255 0.611056 39.5635 0.141451C35.58 -0.415365 31.9803 0.683062 29.4139 3.23637L27.6948 4.94796L38.5482 15.7471C39.47 16.6644 40.9645 16.6644 41.8863 15.7471L43.6563 13.9854L34.9332 5.30352C36.0892 4.8536 37.4142 4.73105 38.8853 4.9341C41.2521 5.26595 43.6154 6.42834 45.4083 8.13635C46.7917 9.45393 47.7499 11.1937 48.0344 13.0784C48.4565 15.8736 47.549 18.5821 45.5934 20.5272L41.4198 24.6816L22.1903 5.54682C18.7236 2.09814 14.1486 0.322137 9.14661 1.82577C8.55333 2.00422 7.97623 2.23723 7.42565 2.52033C-1.10457 6.90286 -2.2853 17.6268 3.88259 23.7652L25.5378 45.312C26.4597 46.2293 27.9541 46.2293 28.8755 45.312L38.5019 35.733L16.1352 13.5717C15.2219 12.6669 13.7486 12.658 12.8245 13.552L11.0532 15.2654L31.6226 35.7334L27.2062 40.128L7.32227 20.3425C4.04259 17.0781 4.04259 11.7657 7.32137 8.5022C9.29404 6.54015 11.6002 6.14031 14.439 6.67119C16.1374 6.98873 17.6692 7.89484 18.8913 9.1109L41.2018 31.3111L41.4193 31.5271L49.0336 23.9513C51.7559 21.2414 53.1762 17.5839 52.9825 13.7269C52.8103 10.2992 51.2804 7.0339 48.7913 4.65815H48.7918Z" fill="#EEA5A6"/>
</svg>
