<svg width="22" height="21" viewBox="0 0 22 21" fill="none" xmlns="http://www.w3.org/2000/svg">
<path d="M20.8808 19.3407L20.8808 19.3406L15.7855 14.3269C17.1153 12.8492 17.9299 10.9107 17.9299 8.78069C17.9293 4.15036 14.1158 0.4 9.41464 0.4C4.7135 0.4 0.9 4.15036 0.9 8.78069C0.9 13.411 4.7135 17.1614 9.41464 17.1614C11.414 17.1614 13.2507 16.4807 14.7037 15.3453L19.8246 20.3846C19.8247 20.3846 19.8247 20.3846 19.8247 20.3847C20.1162 20.6718 20.5887 20.6718 20.8802 20.3846C21.1732 20.0967 21.1731 19.6287 20.8808 19.3407ZM9.41464 15.6873C5.53611 15.6873 2.39471 12.5936 2.39471 8.78069C2.39471 4.96775 5.53611 1.87403 9.41464 1.87403C13.2932 1.87403 16.4346 4.96774 16.4346 8.78069C16.4346 12.5936 13.2932 15.6873 9.41464 15.6873Z" fill="black" stroke="black" stroke-width="0.2"/>
</svg>
